<svg width="24" height="18" viewBox="0 0 24 18" fill="none" xmlns="http://www.w3.org/2000/svg">
<path d="M23.5432 13.7717L22.2531 4.83501C21.9216 2.53668 19.9213 0.833344 17.5658 0.833344H6.84199C4.48654 0.833344 2.48618 2.53668 2.15476 4.83501L0.864586 13.7717C0.604184 15.5683 2.01272 17.1667 3.84737 17.1667C4.65225 17.1667 5.40978 16.8517 5.97793 16.2917L8.65297 13.6667H15.7548L18.418 16.2917C18.9862 16.8517 19.7556 17.1667 20.5486 17.1667C22.3951 17.1667 23.8036 15.5683 23.5432 13.7717ZM11.0203 7.83334H8.65297V10.1667H7.46933V7.83334H5.10204V6.66668H7.46933V4.33334H8.65297V6.66668H11.0203V7.83334ZM15.7548 6.66668C15.1038 6.66668 14.5712 6.14168 14.5712 5.50001C14.5712 4.85834 15.1038 4.33334 15.7548 4.33334C16.4058 4.33334 16.9385 4.85834 16.9385 5.50001C16.9385 6.14168 16.4058 6.66668 15.7548 6.66668ZM18.1221 10.1667C17.4711 10.1667 16.9385 9.64168 16.9385 9.00001C16.9385 8.35834 17.4711 7.83334 18.1221 7.83334C18.7731 7.83334 19.3058 8.35834 19.3058 9.00001C19.3058 9.64168 18.7731 10.1667 18.1221 10.1667Z" fill="#2A7AE4"/>
</svg>
