<svg width="176" height="50" viewBox="0 0 176 50" fill="none" xmlns="http://www.w3.org/2000/svg">
<g clip-path="url(#clip0_166_2859)">
<path d="M44.9559 33.5209L42.6852 17.5626C42.1019 13.4584 38.5813 10.4167 34.4357 10.4167H15.5618C11.4162 10.4167 7.89554 13.4584 7.31224 17.5626L5.04153 33.5209C4.58323 36.7293 7.06225 39.5834 10.2912 39.5834C11.7078 39.5834 13.0411 39.0209 14.041 38.0209L18.7491 33.3334H31.2484L35.9356 38.0209C36.9356 39.0209 38.2896 39.5834 39.6854 39.5834C42.9352 39.5834 45.4142 36.7293 44.9559 33.5209ZM22.9155 22.9167H18.7491V27.0834H16.6659V22.9167H12.4994V20.8334H16.6659V16.6667H18.7491V20.8334H22.9155V22.9167ZM31.2484 20.8334C30.1026 20.8334 29.1652 19.8959 29.1652 18.7501C29.1652 17.6042 30.1026 16.6667 31.2484 16.6667C32.3942 16.6667 33.3316 17.6042 33.3316 18.7501C33.3316 19.8959 32.3942 20.8334 31.2484 20.8334ZM35.4148 27.0834C34.269 27.0834 33.3316 26.1459 33.3316 25.0001C33.3316 23.8543 34.269 22.9167 35.4148 22.9167C36.5606 22.9167 37.498 23.8543 37.498 25.0001C37.498 26.1459 36.5606 27.0834 35.4148 27.0834Z" fill="#2A7AE4"/>
</g>
<path d="M128.081 32C126.665 33.4167 125.015 34.125 123.132 34.125C121.965 34.125 120.865 33.8917 119.832 33.425C118.815 32.9583 117.924 32.3167 117.157 31.5C116.407 30.6833 115.807 29.725 115.357 28.625C114.924 27.5083 114.707 26.3083 114.707 25.025C114.707 23.8083 114.924 22.6667 115.357 21.6C115.807 20.5167 116.415 19.575 117.182 18.775C117.965 17.9583 118.882 17.3167 119.932 16.85C120.982 16.3667 122.123 16.125 123.357 16.125C125.023 16.125 126.448 16.475 127.631 17.175C128.831 17.875 129.731 18.8167 130.331 20L127.756 21.9C127.306 21.0167 126.673 20.3417 125.856 19.875C125.056 19.4083 124.182 19.175 123.232 19.175C122.482 19.175 121.79 19.3333 121.157 19.65C120.54 19.9667 120.007 20.4 119.557 20.95C119.123 21.5 118.782 22.1333 118.532 22.85C118.298 23.5667 118.182 24.325 118.182 25.125C118.182 25.9583 118.315 26.7417 118.582 27.475C118.848 28.1917 119.215 28.8167 119.682 29.35C120.148 29.8833 120.698 30.3083 121.332 30.625C121.982 30.925 122.682 31.075 123.432 31.075C125.148 31.075 126.698 30.2667 128.081 28.65V27.4H124.506V24.875H130.931V34H128.081V32Z" fill="#464646"/>
<path d="M139.621 34.25C138.571 34.25 137.621 34.075 136.771 33.725C135.921 33.3583 135.196 32.8667 134.596 32.25C133.996 31.6333 133.53 30.9167 133.196 30.1C132.88 29.2833 132.721 28.425 132.721 27.525C132.721 26.5917 132.88 25.7167 133.196 24.9C133.513 24.0667 133.971 23.3417 134.571 22.725C135.171 22.0917 135.896 21.5917 136.746 21.225C137.613 20.8583 138.579 20.675 139.646 20.675C140.712 20.675 141.662 20.8583 142.496 21.225C143.346 21.5917 144.062 22.0833 144.646 22.7C145.246 23.3167 145.696 24.0333 145.996 24.85C146.312 25.6667 146.47 26.5167 146.47 27.4C146.47 27.6167 146.462 27.825 146.445 28.025C146.445 28.225 146.429 28.3917 146.395 28.525H136.271C136.321 29.0417 136.446 29.5 136.646 29.9C136.846 30.3 137.104 30.6417 137.421 30.925C137.738 31.2083 138.096 31.425 138.496 31.575C138.896 31.725 139.313 31.8 139.746 31.8C140.412 31.8 141.037 31.6417 141.621 31.325C142.221 30.9917 142.629 30.5583 142.846 30.025L145.721 30.825C145.237 31.825 144.462 32.65 143.396 33.3C142.346 33.9333 141.087 34.25 139.621 34.25ZM143.021 26.35C142.937 25.3667 142.571 24.5833 141.921 24C141.287 23.4 140.512 23.1 139.596 23.1C139.146 23.1 138.721 23.1833 138.321 23.35C137.938 23.5 137.596 23.7167 137.296 24C136.996 24.2833 136.746 24.625 136.546 25.025C136.363 25.425 136.254 25.8667 136.221 26.35H143.021Z" fill="#464646"/>
<path d="M154.586 34.25C153.536 34.25 152.586 34.075 151.736 33.725C150.886 33.3583 150.161 32.8667 149.561 32.25C148.961 31.6333 148.495 30.9167 148.161 30.1C147.845 29.2833 147.686 28.425 147.686 27.525C147.686 26.5917 147.845 25.7167 148.161 24.9C148.478 24.0667 148.936 23.3417 149.536 22.725C150.136 22.0917 150.861 21.5917 151.711 21.225C152.578 20.8583 153.544 20.675 154.611 20.675C155.677 20.675 156.627 20.8583 157.461 21.225C158.311 21.5917 159.027 22.0833 159.611 22.7C160.211 23.3167 160.661 24.0333 160.96 24.85C161.277 25.6667 161.435 26.5167 161.435 27.4C161.435 27.6167 161.427 27.825 161.41 28.025C161.41 28.225 161.394 28.3917 161.36 28.525H151.236C151.286 29.0417 151.411 29.5 151.611 29.9C151.811 30.3 152.069 30.6417 152.386 30.925C152.703 31.2083 153.061 31.425 153.461 31.575C153.861 31.725 154.278 31.8 154.711 31.8C155.377 31.8 156.002 31.6417 156.586 31.325C157.186 30.9917 157.594 30.5583 157.811 30.025L160.686 30.825C160.202 31.825 159.427 32.65 158.361 33.3C157.311 33.9333 156.052 34.25 154.586 34.25ZM157.986 26.35C157.902 25.3667 157.536 24.5833 156.886 24C156.252 23.4 155.477 23.1 154.561 23.1C154.111 23.1 153.686 23.1833 153.286 23.35C152.903 23.5 152.561 23.7167 152.261 24C151.961 24.2833 151.711 24.625 151.511 25.025C151.328 25.425 151.219 25.8667 151.186 26.35H157.986Z" fill="#464646"/>
<path d="M172.426 34L168.626 28.325L166.826 30.1V34H163.476V15.75H166.826V26.825L172.076 20.925H175.65L170.776 26.475L176 34H172.426Z" fill="#464646"/>
<path d="M56.7722 16.25H59.822L66.5716 34H63.0218L61.3719 29.575H55.1723L53.5474 34H49.9976L56.7722 16.25ZM60.747 27.15L58.2971 20.175L55.7472 27.15H60.747Z" fill="#2A7AE4"/>
<path d="M68.1684 15.75H71.5182V29.8C71.5182 30.2833 71.6349 30.6583 71.8682 30.925C72.1015 31.1917 72.4348 31.325 72.8681 31.325C73.0681 31.325 73.2848 31.2917 73.5181 31.225C73.7681 31.1583 74.0014 31.075 74.2181 30.975L74.668 33.525C74.2181 33.7417 73.6931 33.9083 73.0931 34.025C72.4932 34.1417 71.9515 34.2 71.4682 34.2C70.4183 34.2 69.6017 33.925 69.0184 33.375C68.4517 32.8083 68.1684 32.0083 68.1684 30.975V15.75Z" fill="#2A7AE4"/>
<path d="M80.1273 34.25C78.7774 34.25 77.7524 33.8167 77.0525 32.95C76.3525 32.0833 76.0025 30.8 76.0025 29.1V20.9H79.3524V28.375C79.3524 30.3917 80.0773 31.4 81.5272 31.4C82.1772 31.4 82.8022 31.2083 83.4021 30.825C84.0188 30.425 84.5187 29.825 84.902 29.025V20.9H88.2518V30.15C88.2518 30.5 88.3102 30.75 88.4268 30.9C88.5602 31.05 88.7685 31.1333 89.0518 31.15V34C88.7185 34.0667 88.4352 34.1083 88.2019 34.125C87.9852 34.1417 87.7852 34.15 87.6019 34.15C87.0019 34.15 86.5103 34.0167 86.127 33.75C85.7603 33.4667 85.5437 33.0833 85.477 32.6L85.402 31.55C84.8187 32.45 84.0687 33.125 83.1521 33.575C82.2355 34.025 81.2272 34.25 80.1273 34.25Z" fill="#2A7AE4"/>
<path d="M99.3803 23.8C98.3637 23.8167 97.4554 24.0167 96.6555 24.4C95.8555 24.7667 95.2806 25.325 94.9306 26.075V34H91.5808V20.9H94.6556V23.7C94.8889 23.25 95.1639 22.85 95.4805 22.5C95.7972 22.1333 96.1388 21.8167 96.5055 21.55C96.8721 21.2833 97.2388 21.0833 97.6054 20.95C97.9887 20.8 98.3554 20.725 98.7054 20.725C98.8887 20.725 99.022 20.725 99.1053 20.725C99.2053 20.725 99.297 20.7333 99.3803 20.75V23.8Z" fill="#2A7AE4"/>
<path d="M104.652 34.25C104.019 34.25 103.427 34.15 102.877 33.95C102.327 33.7333 101.852 33.4417 101.452 33.075C101.052 32.6917 100.736 32.25 100.502 31.75C100.286 31.25 100.177 30.7 100.177 30.1C100.177 29.4833 100.311 28.9167 100.577 28.4C100.861 27.8667 101.244 27.4167 101.727 27.05C102.227 26.6833 102.819 26.4 103.502 26.2C104.185 25.9833 104.935 25.875 105.752 25.875C106.335 25.875 106.902 25.925 107.452 26.025C108.019 26.125 108.519 26.2667 108.952 26.45V25.7C108.952 24.8333 108.702 24.1667 108.202 23.7C107.719 23.2333 106.994 23 106.027 23C105.327 23 104.644 23.125 103.977 23.375C103.311 23.625 102.627 23.9917 101.927 24.475L100.902 22.35C102.586 21.2333 104.402 20.675 106.352 20.675C108.235 20.675 109.693 21.1417 110.727 22.075C111.777 22.9917 112.302 24.325 112.302 26.075V30.15C112.302 30.5 112.36 30.75 112.477 30.9C112.61 31.05 112.818 31.1333 113.102 31.15V34C112.535 34.1167 112.043 34.175 111.627 34.175C110.993 34.175 110.502 34.0333 110.152 33.75C109.818 33.4667 109.61 33.0917 109.527 32.625L109.452 31.9C108.869 32.6667 108.16 33.25 107.327 33.65C106.494 34.05 105.602 34.25 104.652 34.25ZM105.602 31.8C106.169 31.8 106.702 31.7 107.202 31.5C107.719 31.3 108.119 31.0333 108.402 30.7C108.769 30.4167 108.952 30.1 108.952 29.75V28.25C108.552 28.1 108.119 27.9833 107.652 27.9C107.185 27.8 106.735 27.75 106.302 27.75C105.435 27.75 104.727 27.95 104.177 28.35C103.627 28.7333 103.352 29.225 103.352 29.825C103.352 30.3917 103.569 30.8667 104.002 31.25C104.435 31.6167 104.969 31.8 105.602 31.8Z" fill="#2A7AE4"/>
<defs>
<clipPath id="clip0_166_2859">
<rect width="49.9972" height="50" fill="white"/>
</clipPath>
</defs>
</svg>
